<svg xmlns="http://www.w3.org/2000/svg" xmlns:svg="http://www.w3.org/2000/svg" id="svg6369" width="16" height="16" version="1.1"><defs id="defs6371"><clipPath id="clipPath2606" clipPathUnits="userSpaceOnUse"><path id="path2608" d="m 0,1600 612,0 L 612,0 0,0 0,1600 z"/></clipPath></defs><metadata id="metadata6374"/><g id="layer1" transform="translate(-341.11804,-475.25042)"><g id="g2602" transform="matrix(2.1727322,0,0,-2.1727322,272.72021,1307.781)"><g id="g2604" clip-path="url(#clipPath2606)"><g id="g2610" transform="translate(31.6191,379.1602)"><path d="m 0,0 c -0.092,0.092 -0.139,0.201 -0.139,0.325 0,0.124 0.047,0.234 0.139,0.325 l 3.213,3.222 c 0.092,0.093 0.201,0.14 0.325,0.14 0.124,0 0.233,-0.047 0.325,-0.14 L 4.343,3.394 C 4.436,3.301 4.481,3.193 4.481,3.07 4.481,2.947 4.436,2.84 4.343,2.747 l -1.618,-1.618 4.031,0 c 0.131,0 0.24,-0.043 0.328,-0.131 C 7.171,0.91 7.215,0.801 7.215,0.67 l 0,-0.69 C 7.215,-0.145 7.171,-0.25 7.084,-0.338 6.996,-0.426 6.889,-0.47 6.766,-0.47 l -4.041,0 1.618,-1.618 c 0.093,-0.092 0.138,-0.2 0.138,-0.323 0,-0.122 -0.045,-0.231 -0.138,-0.323 L 3.863,-3.213 C 3.771,-3.305 3.662,-3.352 3.538,-3.352 c -0.124,0 -0.233,0.047 -0.325,0.139 L 0,0 z" style="fill:#333;fill-opacity:1;fill-rule:nonzero;stroke:none" id="path2612"/></g></g></g></g></svg>