<svg xmlns="http://www.w3.org/2000/svg" xmlns:svg="http://www.w3.org/2000/svg" id="svg6369" width="9.193" height="9.204" version="1.1"><defs id="defs6371"><clipPath id="clipPath1582" clipPathUnits="userSpaceOnUse"><path id="path1584" d="m 0,1600 612,0 L 612,0 0,0 0,1600 z"/></clipPath></defs><metadata id="metadata6374"/><g id="layer1" transform="translate(-342.44185,-372.08065)"><g id="g1578" transform="matrix(1.25,0,0,-1.25,-64.5684,1706.4464)"><g id="g1580" clip-path="url(#clipPath1582)"><g id="g1586" transform="translate(332.8232,1061.3936)"><path d="M 0,0 C 0.092,-0.093 0.139,-0.199 0.139,-0.318 0.139,-0.438 0.092,-0.545 0,-0.637 l -0.479,-0.488 c -0.092,-0.093 -0.201,-0.139 -0.326,-0.139 -0.124,0 -0.231,0.046 -0.32,0.139 L -3.538,1.292 -5.96,-1.125 c -0.093,-0.093 -0.199,-0.139 -0.318,-0.139 -0.12,0 -0.227,0.046 -0.319,0.139 l -0.479,0.479 c -0.093,0.091 -0.139,0.2 -0.139,0.323 0,0.122 0.046,0.23 0.139,0.323 l 2.432,2.441 -2.432,2.394 c -0.093,0.093 -0.139,0.2 -0.139,0.323 0,0.123 0.046,0.231 0.139,0.322 l 0.479,0.48 c 0.092,0.093 0.201,0.139 0.326,0.139 0.124,0 0.231,-0.046 0.32,-0.139 l 2.413,-2.413 2.413,2.413 c 0.092,0.093 0.2,0.139 0.323,0.139 0.122,0 0.231,-0.046 0.323,-0.139 L 0,5.48 C 0.092,5.389 0.139,5.28 0.139,5.155 0.139,5.031 0.092,4.924 0,4.835 L -2.433,2.394 0,0 z" style="fill:#333;fill-opacity:1;fill-rule:nonzero;stroke:none" id="path1588"/></g></g></g></g></svg>