<svg xmlns="http://www.w3.org/2000/svg" xmlns:svg="http://www.w3.org/2000/svg" id="svg6369" width="16" height="16" version="1.1"><defs id="defs6371"><clipPath id="clipPath660" clipPathUnits="userSpaceOnUse"><path id="path662" d="m 0,1600 612,0 L 612,0 0,0 0,1600 z"/></clipPath></defs><metadata id="metadata6374"/><g id="layer1" transform="translate(-285.9142,-598.10125)"><g id="g656" transform="matrix(1.8134421,0,0,-1.8134421,-303.4465,2813.9888)"><g id="g658" clip-path="url(#clipPath660)"><g id="g664" transform="translate(332.3486,1219.355)"><path d="m 0,0 -1.843,0 0,1.834 L 0,0 z m 0,-2.029 -5.883,0 0,3.499 c 0,0.098 0.035,0.184 0.108,0.257 0.071,0.071 0.16,0.107 0.265,0.107 l 3.116,0 0,-1.834 c 0,-0.156 0.055,-0.289 0.164,-0.396 0.108,-0.11 0.237,-0.164 0.387,-0.164 l 1.843,0 0,-1.469 z m 0.188,-2.384 c 0,0.051 -0.019,0.095 -0.056,0.131 C 0.096,-4.245 0.052,-4.227 0,-4.227 l -5.883,0 c -0.052,0 -0.096,-0.017 -0.132,-0.052 -0.037,-0.035 -0.055,-0.08 -0.055,-0.134 l 0,-0.183 c 0,-0.05 0.018,-0.092 0.055,-0.127 0.036,-0.033 0.08,-0.049 0.132,-0.049 l 5.883,0 c 0.052,0 0.096,0.015 0.132,0.047 0.037,0.033 0.056,0.076 0.056,0.129 l 0,0.183 z M 0.374,-2.58 C 0.523,-2.58 0.666,-2.608 0.8,-2.666 0.934,-2.724 1.05,-2.802 1.146,-2.9 1.244,-3 1.322,-3.116 1.382,-3.25 1.44,-3.385 1.47,-3.526 1.47,-3.676 l 0,-1.657 C 1.47,-5.457 1.408,-5.52 1.283,-5.52 l -8.449,0 c -0.125,0 -0.187,0.063 -0.187,0.187 l 0,1.657 c 0,0.15 0.03,0.291 0.088,0.426 0.06,0.134 0.14,0.25 0.24,0.35 0.1,0.098 0.218,0.176 0.352,0.234 0.134,0.058 0.276,0.086 0.426,0.086 l 6.621,0 z" style="fill:#333;fill-opacity:1;fill-rule:nonzero;stroke:none" id="path666"/></g></g></g></g></svg>