<svg xmlns="http://www.w3.org/2000/svg" xmlns:svg="http://www.w3.org/2000/svg" id="svg4173" width="64" height="64" version="1.1"><defs id="defs4175"><filter id="filter4932" width="1.081" height="1.288" x="-.041" y="-.144" color-interpolation-filters="sRGB"><feGaussianBlur id="feGaussianBlur4934" stdDeviation=".424"/></filter></defs><metadata id="metadata4178"/><g id="layer1" transform="translate(-13.008617,-979.2811)"><path style="fill:red;fill-opacity:1;stroke:#000;stroke-width:.42595485;stroke-linecap:round;stroke-linejoin:miter;stroke-miterlimit:4;stroke-opacity:1;stroke-dashoffset:0" id="path4183" d="m 53.488021,990.3013 c 0,2.94123 -1.298932,1.70063 -3.388946,5.88522 -5.384469,10.78058 -4.308108,14.68148 -5.203679,14.69018 -0.768002,0.012 -0.18079,-3.9096 -5.082657,-14.69018 -1.927822,-4.23988 -3.267922,-2.94399 -3.267922,-5.88522 0,-5.88209 3.792864,-10.65055 8.471603,-10.65055 4.678736,0 8.471601,4.76846 8.471601,10.65055 z"/><path style="fill:#787878;fill-opacity:1;stroke:none;filter:url(#filter4932)" id="path4183-1" d="m 42.544708,1041.0406 c -2.230329,0.5715 -2.009603,-0.014 -6.341193,0.2424 -11.159458,0.6633 -14.003388,1.4905 -14.023946,1.4712 -0.02042,-0.019 2.864488,-0.8079 8.322436,-4.2062 2.146512,-1.3364 0.421094,-1.4409 2.651422,-2.0125 4.460431,-1.143 10.1787,-1.0611 12.772032,0.1828 2.593328,1.2441 1.079679,3.1792 -3.380751,4.3223 z" transform="matrix(0.97187417,-0.23550074,0.23550074,0.97187417,-222.01611,2.5057008)"/></g></svg>