<svg xmlns="http://www.w3.org/2000/svg" xmlns:xlink="http://www.w3.org/1999/xlink" id="svg1" width="510" height="300" x="0" y="0" version="1.0"><g id="layer1"><rect width="637.5" height="375" x="125" y="302.362" fill="#003893" fill-opacity="1" fill-rule="nonzero" stroke="none" stroke-linecap="round" stroke-linejoin="round" stroke-miterlimit="4" stroke-opacity="1" stroke-width="1.875" transform="matrix(0.800000,0.000000,0.000000,0.800000,-100.0000,-241.8897)"/><rect width="637.5" height="93.75" x="125" y="489.862" fill="#fff" fill-opacity="1" fill-rule="nonzero" stroke="none" stroke-linecap="round" stroke-linejoin="round" stroke-miterlimit="4" stroke-opacity="1" stroke-width="1.875" transform="matrix(0.800000,0.000000,0.000000,0.800000,-100.0000,-241.8897)"/><rect width="637.5" height="31.25" x="125" y="521.112" fill="#ce1126" fill-opacity="1" fill-rule="nonzero" stroke="none" stroke-linecap="round" stroke-linejoin="round" stroke-miterlimit="4" stroke-opacity="1" stroke-width="1.875" transform="matrix(0.800000,0.000000,0.000000,0.800000,-100.0000,-241.8897)"/><path fill="#fcd116" fill-opacity="1" fill-rule="evenodd" stroke="none" stroke-linecap="butt" stroke-linejoin="miter" stroke-opacity="1" stroke-width=".333" d="M 38.89,309.8 L 34.68,322.8 L 21.06,322.8 L 32.08,330.8 L 27.87,343.7 L 38.89,335.7 L 49.91,343.7 L 45.70,330.8 L 56.72,322.8 L 43.10,322.8 L 38.89,309.8 z" transform="matrix(0.800000,0.000000,0.000000,0.800000,160.1358,-150.3934)"/><path fill="#fcd116" fill-opacity="1" fill-rule="evenodd" stroke="none" stroke-linecap="butt" stroke-linejoin="miter" stroke-opacity="1" stroke-width=".333" d="M 38.89,309.8 L 34.68,322.8 L 21.06,322.8 L 32.08,330.8 L 27.87,343.7 L 38.89,335.7 L 49.91,343.7 L 45.70,330.8 L 56.72,322.8 L 43.10,322.8 L 38.89,309.8 z" transform="matrix(0.800000,0.000000,0.000000,0.800000,116.0558,-136.0734)"/><path fill="#fcd116" fill-opacity="1" fill-rule="evenodd" stroke="none" stroke-linecap="butt" stroke-linejoin="miter" stroke-opacity="1" stroke-width=".333" d="M 38.89,309.8 L 34.68,322.8 L 21.06,322.8 L 32.08,330.8 L 27.87,343.7 L 38.89,335.7 L 49.91,343.7 L 45.70,330.8 L 56.72,322.8 L 43.10,322.8 L 38.89,309.8 z" transform="matrix(0.800000,0.000000,0.000000,0.800000,88.80584,-98.57338)"/><path fill="#fcd116" fill-opacity="1" fill-rule="evenodd" stroke="none" stroke-linecap="butt" stroke-linejoin="miter" stroke-opacity="1" stroke-width=".333" d="M 38.89,309.8 L 34.68,322.8 L 21.06,322.8 L 32.08,330.8 L 27.87,343.7 L 38.89,335.7 L 49.91,343.7 L 45.70,330.8 L 56.72,322.8 L 43.10,322.8 L 38.89,309.8 z" transform="matrix(0.800000,0.000000,0.000000,0.800000,88.80584,-52.21338)"/><path fill="#fcd116" fill-opacity="1" fill-rule="evenodd" stroke="none" stroke-linecap="butt" stroke-linejoin="miter" stroke-opacity="1" stroke-width=".333" d="M 38.89,309.8 L 34.68,322.8 L 21.06,322.8 L 32.08,330.8 L 27.87,343.7 L 38.89,335.7 L 49.91,343.7 L 45.70,330.8 L 56.72,322.8 L 43.10,322.8 L 38.89,309.8 z" transform="matrix(0.800000,0.000000,0.000000,0.800000,116.0558,-14.71338)"/><path fill="#fcd116" fill-opacity="1" fill-rule="evenodd" stroke="none" stroke-linecap="butt" stroke-linejoin="miter" stroke-opacity="1" stroke-width=".333" d="M 38.89,309.8 L 34.68,322.8 L 21.06,322.8 L 32.08,330.8 L 27.87,343.7 L 38.89,335.7 L 49.91,343.7 L 45.70,330.8 L 56.72,322.8 L 43.10,322.8 L 38.89,309.8 z" transform="matrix(0.800000,0.000000,0.000000,0.800000,160.1358,-0.393460)"/><path fill="#fcd116" fill-opacity="1" fill-rule="evenodd" stroke="none" stroke-linecap="butt" stroke-linejoin="miter" stroke-opacity="1" stroke-width=".333" d="M 38.89,309.8 L 34.68,322.8 L 21.06,322.8 L 32.08,330.8 L 27.87,343.7 L 38.89,335.7 L 49.91,343.7 L 45.70,330.8 L 56.72,322.8 L 43.10,322.8 L 38.89,309.8 z" transform="matrix(0.800000,0.000000,0.000000,0.800000,204.2158,-14.71338)"/><path fill="#fcd116" fill-opacity="1" fill-rule="evenodd" stroke="none" stroke-linecap="butt" stroke-linejoin="miter" stroke-opacity="1" stroke-width=".333" d="M 38.89,309.8 L 34.68,322.8 L 21.06,322.8 L 32.08,330.8 L 27.87,343.7 L 38.89,335.7 L 49.91,343.7 L 45.70,330.8 L 56.72,322.8 L 43.10,322.8 L 38.89,309.8 z" transform="matrix(0.800000,0.000000,0.000000,0.800000,231.4658,-98.57338)"/><path fill="#fcd116" fill-opacity="1" fill-rule="evenodd" stroke="none" stroke-linecap="butt" stroke-linejoin="miter" stroke-opacity="1" stroke-width=".333" d="M 38.89,309.8 L 34.68,322.8 L 21.06,322.8 L 32.08,330.8 L 27.87,343.7 L 38.89,335.7 L 49.91,343.7 L 45.70,330.8 L 56.72,322.8 L 43.10,322.8 L 38.89,309.8 z" transform="matrix(0.800000,0.000000,0.000000,0.800000,231.4658,-52.21338)"/><path fill="#fcd116" fill-opacity="1" fill-rule="evenodd" stroke="none" stroke-linecap="butt" stroke-linejoin="miter" stroke-opacity="1" stroke-width=".333" d="M 38.89,309.8 L 34.68,322.8 L 21.06,322.8 L 32.08,330.8 L 27.87,343.7 L 38.89,335.7 L 49.91,343.7 L 45.70,330.8 L 56.72,322.8 L 43.10,322.8 L 38.89,309.8 z" transform="matrix(0.800000,0.000000,0.000000,0.800000,204.2158,-136.0734)"/></g></svg>