<svg xmlns="http://www.w3.org/2000/svg" xmlns:xlink="http://www.w3.org/1999/xlink" id="svg1" width="450" height="300" x="0" y="0" version="1.0"><rect width="90" height="60" x="125" y="617.362" fill="#0072c6" fill-opacity="1" fill-rule="evenodd" stroke="none" stroke-linecap="butt" stroke-linejoin="miter" stroke-opacity="1" stroke-width="1.333" transform="matrix(5.000000,0.000000,0.000000,5.000000,-625.0000,-3086.811)"/><rect width="67.5" height="60" x="147.5" y="617.362" fill="#fcd116" fill-opacity="1" fill-rule="evenodd" stroke="none" stroke-linecap="butt" stroke-linejoin="miter" stroke-opacity="1" stroke-width="1.333" transform="matrix(5.000000,0.000000,0.000000,5.000000,-625.0000,-3086.811)"/><rect width="22.5" height="60" x="192.5" y="617.362" fill="#009e60" fill-opacity="1" fill-rule="evenodd" stroke="none" stroke-linecap="butt" stroke-linejoin="miter" stroke-opacity="1" stroke-width="1.333" transform="matrix(5.000000,0.000000,0.000000,5.000000,-625.0000,-3086.811)"/><path fill="#009e60" fill-opacity="1" fill-rule="evenodd" stroke="none" stroke-linecap="butt" stroke-linejoin="miter" stroke-opacity="1" stroke-width="1.333" d="M 165.0,659.8 L 170.0,669.8 L 175.0,659.8 L 170.0,649.8 L 165.0,659.8 z" transform="matrix(5.000000,0.000000,0.000000,5.000000,-625.0000,-3086.811)"/><path fill="#009e60" fill-opacity="1" fill-rule="evenodd" stroke="none" stroke-linecap="butt" stroke-linejoin="miter" stroke-opacity="1" stroke-width="1.333" d="M 171.2,647.3 L 176.2,657.3 L 181.2,647.3 L 176.2,637.3 L 171.2,647.3 z" transform="matrix(5.000000,0.000000,0.000000,5.000000,-625.0000,-3086.811)"/><path fill="#009e60" fill-opacity="1" fill-rule="evenodd" stroke="none" stroke-linecap="butt" stroke-linejoin="miter" stroke-opacity="1" stroke-width="1.333" d="M 158.7,647.3 L 163.7,657.3 L 168.7,647.3 L 163.7,637.3 L 158.7,647.3 z" transform="matrix(5.000000,0.000000,0.000000,5.000000,-625.0000,-3086.811)"/></svg>