<svg xmlns="http://www.w3.org/2000/svg" xmlns:xlink="http://www.w3.org/1999/xlink" id="svg1" width="600" height="300" x="0" y="0" version="1.0"><rect width="60" height="30" x="125" y="647.362" fill="#002b7f" fill-opacity="1" fill-rule="evenodd" stroke="none" stroke-linecap="butt" stroke-linejoin="miter" stroke-opacity="1" stroke-width="1.333" transform="matrix(10.00000,0.000000,0.000000,10.00000,-1250.000,-6473.622)"/><path fill="#fff" fill-opacity="1" fill-rule="evenodd" stroke="none" stroke-linecap="butt" stroke-linejoin="miter" stroke-opacity="1" stroke-width="1.333" d="M 140.0,673.6 L 139.3,671.0 L 137.5,672.9 L 138.2,670.3 L 135.6,671.1 L 137.5,669.2 L 135.0,668.6 L 137.5,667.9 L 135.6,666.1 L 138.2,666.8 L 137.5,664.2 L 139.3,666.1 L 140.0,663.6 L 140.6,666.1 L 142.5,664.2 L 141.7,666.8 L 144.3,666.1 L 142.4,667.9 L 145.0,668.6 L 142.4,669.2 L 144.3,671.1 L 141.7,670.3 L 142.5,672.9 L 140.6,671.0 L 140.0,673.6 z" transform="matrix(10.00000,0.000000,0.000000,10.00000,-1250.000,-6473.622)"/><rect width="60" height="2.5" x="125" y="661.112" fill="#ffc61e" fill-opacity="1" fill-rule="evenodd" stroke="none" stroke-linecap="butt" stroke-linejoin="miter" stroke-opacity="1" stroke-width="1.333" transform="matrix(10.00000,0.000000,0.000000,10.00000,-1250.000,-6473.622)"/></svg>