<svg xmlns="http://www.w3.org/2000/svg" xmlns:svg="http://www.w3.org/2000/svg" xmlns:xlink="http://www.w3.org/1999/xlink" width="896" height="448" version="1.0" viewBox="0 0 448 224"><rect id="white_background" width="448" height="224" fill="#fff"/><path id="red_stripes" stroke="#ce1126" stroke-width="16" d="M0,8 h448 m -448,32 h448 m -448,32 h448 m -448,32 h448 m -448,32 h448 m -448,32 h448 m -448,32 h448"/><rect id="blue_canton" width="224" height="128" fill="#002b7f"/><circle id="outer_circle" cx="92" cy="64" r="48" fill="#fcd116"/><circle id="inner_circle" cx="102" cy="64" r="42" fill="#002b7f"/><g id="star" fill="#FCD116" transform="translate(140,64) scale(40)"><g id="cone"><polygon id="triangle" points="0 0 0 1 .286 1" transform="translate(0,-1) rotate(7.75)"/><use transform="scale(-1,1)" xlink:href="#triangle"/></g><use transform="rotate(25.7142857)" xlink:href="#cone"/><use transform="rotate(-25.7142857)" xlink:href="#cone"/><use transform="rotate(51.4285714)" xlink:href="#cone"/><use transform="rotate(-51.4285714)" xlink:href="#cone"/><use transform="rotate(77.1428571)" xlink:href="#cone"/><use transform="rotate(-77.1428571)" xlink:href="#cone"/><use transform="rotate(102.857143)" xlink:href="#cone"/><use transform="rotate(-102.857143)" xlink:href="#cone"/><use transform="rotate(128.571429)" xlink:href="#cone"/><use transform="rotate(-128.571429)" xlink:href="#cone"/><use transform="rotate(154.285714)" xlink:href="#cone"/><use transform="rotate(-154.285714)" xlink:href="#cone"/><use transform="rotate(180)" xlink:href="#cone"/></g></svg>