<svg xmlns="http://www.w3.org/2000/svg" xmlns:ev="http://www.w3.org/2001/xml-events" xmlns:xlink="http://www.w3.org/1999/xlink" id="Flag_of_the_Cook_Islands" width="600" height="300" baseProfile="full" preserveAspectRatio="xMidYMid meet" version="1.1" viewBox="-15 -7.5 30 15" zoomAndPan="magnify"><defs><clipPath id="border"><rect width="30" height="15" x="-15" y="-7.5"/></clipPath></defs><rect width="30" height="15" x="-15" y="-7.5" fill="#00247D"/><comment>The above line is the ensign field color: #CF142B red and #00247D blue</comment><g id="canton"><g clip-path="url(#border)" transform="matrix(0.5,0,0,0.5,-7.5,-3.75)"><circle r="20" fill="#00247D"/><path id="diags_white" stroke="#fff" stroke-width="3" d="M -20,-10 L 20,10 M -20,10 L 20,-10"/><path id="diags_red" stroke="#CF142B" stroke-width="2" d="M -20,-10 L 20,10 M -20,10 L 20,-10"/><path id="eraser_white" fill="#fff" stroke="none" d="M 0,0 l 20,10 h -3 l -20,-10 M 0,0 l 20,-10 h 3 l -20,10 M 0,0 l -20,10 h -3 l 20,-10 M 0,0 l -20,-10 h 3 l 20,10"/><comment>I think the above two lines give the simplest way to make the diagonals</comment><path id="cross_white" stroke="#fff" stroke-width="5" d="M -20,0 H 20 M 0,-10 V 10"/><path id="cross_red" stroke="#CF142B" stroke-width="3" d="M -20,0 H 20 M 0,-10 V 10"/></g></g><g id="star" fill="#fff" transform="translate(7.5,-5.1) scale(1.125)"><g id="cone"><polygon id="triangle" points="0 0 0 1 .5 1" transform="translate(0,-1) rotate(18)"/><use transform="scale(-1,1)" xlink:href="#triangle"/></g><use transform="rotate(72)" xlink:href="#cone"/><use transform="rotate(-72)" xlink:href="#cone"/><use transform="rotate(144)" xlink:href="#cone"/><use transform="rotate(-144)" xlink:href="#cone"/></g><use transform="rotate(24 7.5 0)" xlink:href="#star"/><use transform="rotate(48 7.5 0)" xlink:href="#star"/><use transform="rotate(72 7.5 0)" xlink:href="#star"/><use transform="rotate(96 7.5 0)" xlink:href="#star"/><use transform="rotate(120 7.5 0)" xlink:href="#star"/><use transform="rotate(144 7.5 0)" xlink:href="#star"/><use transform="rotate(168 7.5 0)" xlink:href="#star"/><use transform="rotate(192 7.5 0)" xlink:href="#star"/><use transform="rotate(216 7.5 0)" xlink:href="#star"/><use transform="rotate(240 7.5 0)" xlink:href="#star"/><use transform="rotate(264 7.5 0)" xlink:href="#star"/><use transform="rotate(288 7.5 0)" xlink:href="#star"/><use transform="rotate(312 7.5 0)" xlink:href="#star"/><use transform="rotate(336 7.5 0)" xlink:href="#star"/></svg>