<svg xmlns="http://www.w3.org/2000/svg" xmlns:svg="http://www.w3.org/2000/svg" id="Layer_1" width="48" height="48" x="0" y="0" enable-background="new 0 0 100 85.416" version="1.0" viewBox="0 0 140 140" xml:space="preserve"><metadata id="metadata25"/><g id="g3002" transform="matrix(1.0657957,0,0,1.0657957,16.710215,-20.90438)" style="fill:#0057ae"><g id="g3" transform="translate(0,42.584)" style="fill:#0057ae"><path id="path5" d="M 60.082,20.987 H 39.918 c -3.231,0 -5.851,2.618 -5.851,5.85 v 27.44 c 0,3.231 2.62,5.852 5.851,5.852 h 0.033 v 19.436 c 0,3.231 2.546,5.852 5.689,5.852 h 8.722 c 3.14,0 5.688,-2.62 5.688,-5.852 V 60.129 h 0.032 c 3.231,0 5.851,-2.62 5.851,-5.852 v -27.44 c -0.001,-3.232 -2.62,-5.85 -5.851,-5.85 z" style="fill:#0057ae"/><circle id="circle7" cx="50" cy="9.55" r="9.55" d="M 59.55,9.5500002 C 59.55,14.82432 55.274319,19.1 50,19.1 44.725681,19.1 40.45,14.82432 40.45,9.5500002 40.45,4.2756807 44.725681,0 50,0 c 5.274319,0 9.55,4.2756807 9.55,9.5500002 z" style="fill:#0057ae"/></g><g id="g9" transform="translate(0,42.584)" style="fill:#0057ae"><path id="path11" d="M 94.986,23.268 H 77.708 c -2.771,0 -5.014,2.245 -5.014,5.014 v 23.514 c 0,2.771 2.243,5.016 5.014,5.016 h 0.028 v 16.654 c 0,2.77 2.182,5.014 4.873,5.014 h 7.475 c 2.691,0 4.874,-2.244 4.874,-5.014 V 56.811 h 0.027 c 2.771,0 5.015,-2.245 5.015,-5.016 V 28.281 c 0,-2.768 -2.244,-5.013 -5.014,-5.013 z" style="fill:#0057ae"/><circle id="circle13" cx="86.347" cy="13.469" r="8.184" d="m 94.531,13.469 c 0,4.519898 -3.664101,8.184 -8.184,8.184 -4.519898,0 -8.184,-3.664102 -8.184,-8.184 0,-4.5198985 3.664102,-8.1840002 8.184,-8.1840002 4.519899,0 8.184,3.6641017 8.184,8.1840002 z" style="fill:#0057ae"/></g><g id="g15" transform="translate(0,42.584)" style="fill:#0057ae"><path id="path17" d="M 22.292,23.268 H 5.014 C 2.245,23.268 0,25.513 0,28.281 v 23.514 c 0,2.771 2.245,5.016 5.014,5.016 h 0.028 v 16.654 c 0,2.77 2.184,5.014 4.874,5.014 h 7.474 c 2.692,0 4.874,-2.244 4.874,-5.014 V 56.811 h 0.028 c 2.769,0 5.014,-2.245 5.014,-5.016 V 28.281 C 27.305,25.513 25.06,23.268 22.292,23.268 z" style="fill:#0057ae"/><circle id="circle19" cx="13.653" cy="13.469" r="8.183" d="m 21.835999,13.469 c 0,4.519346 -3.663653,8.182999 -8.182999,8.182999 -4.519346,0 -8.1829997,-3.663653 -8.1829997,-8.182999 0,-4.519346 3.6636537,-8.1829997 8.1829997,-8.1829997 4.519346,0 8.182999,3.6636537 8.182999,8.1829997 z" style="fill:#0057ae"/></g></g></svg>