<svg xmlns="http://www.w3.org/2000/svg" xmlns:Iptc4xmpCore="http://iptc.org/std/Iptc4xmpCore/1.0/xmlns/" xmlns:illustrator="http://ns.adobe.com/illustrator/1.0/" xmlns:pdf="http://ns.adobe.com/pdf/1.3/" xmlns:photoshop="http://ns.adobe.com/photoshop/1.0/" xmlns:stDim="http://ns.adobe.com/xap/1.0/sType/Dimensions#" xmlns:stEvt="http://ns.adobe.com/xap/1.0/sType/ResourceEvent#" xmlns:stRef="http://ns.adobe.com/xap/1.0/sType/ResourceRef#" xmlns:svg="http://www.w3.org/2000/svg" xmlns:x="adobe:ns:meta/" xmlns:xlink="http://www.w3.org/1999/xlink" xmlns:xmp="http://ns.adobe.com/xap/1.0/" xmlns:xmpG="http://ns.adobe.com/xap/1.0/g/" xmlns:xmpGImg="http://ns.adobe.com/xap/1.0/g/img/" xmlns:xmpMM="http://ns.adobe.com/xap/1.0/mm/" xmlns:xmpRights="http://ns.adobe.com/xap/1.0/rights/" xmlns:xmpTPg="http://ns.adobe.com/xap/1.0/t/pg/" id="Ebene_1" width="48" height="48" x="0" y="0" enable-background="new 0 0 100 100" version="1.1" viewBox="0 0 140 140" xml:space="preserve"><defs id="defs13"><linearGradient id="linearGradient5441"><stop style="stop-color:#eeeeec;stop-opacity:.50335568" id="stop5443" offset="0"/><stop style="stop-color:#eeeeec;stop-opacity:0" id="stop5445" offset="1"/></linearGradient><filter id="filter5453" color-interpolation-filters="sRGB"><feGaussianBlur id="feGaussianBlur5455" stdDeviation=".6"/></filter><radialGradient id="radialGradient3007" cx="89.668" cy="-50.425" r="37.628" fx="89.668" fy="-50.425" gradientTransform="matrix(0.01346767,-0.65863297,0.96712694,0.01977575,137.2276,9.6302931)" gradientUnits="userSpaceOnUse" xlink:href="#linearGradient5441"/></defs><metadata id="metadata3"><?xpacket begin="&#65279;" id="W5M0MpCehiHzreSzNTczkc9d"?><x:xmpmeta x:xmptk="Adobe XMP Core 5.0-c061 64.140949, 2010/12/07-10:57:01"><metadata id="metadata15"/></x:xmpmeta><?xpacket end="w"?></metadata><g id="g3001" transform="matrix(1.2001243,0,0,1.2001243,-8.6844373,-9.1172876)"><g id="g7404" transform="translate(6.1769781,6.6629866)"><path style="fill:#000;fill-opacity:1" id="path7" d="m 75.213899,65.903641 c -0.43439,-0.4326 -1.49446,-0.24312 -2.12102,0.38255 -0.53808,0.53719 -1.53915,1.53915 -2.50625,2.50537 -0.96443,0.96353 -1.96372,1.96371 -2.50269,2.50357 -0.62656,0.62567 -0.81605,1.68752 -0.38076,2.1237 1.97265,1.97265 5.73739,4.48338 9.32695,8.07293 9.0892,9.0901 20.44064,21.693769 23.735241,24.988369 0.4344,0.43529 1.49714,0.24312 2.12102,-0.38434 0.46568,-0.46478 1.45156,-1.44887 2.50715,-2.50179 1.05292,-1.05559 2.03611,-2.03968 2.50268,-2.50536 0.62567,-0.62477 0.81784,-1.686619 0.38166,-2.121019 -3.29549,-3.29281 -15.900061,-14.64783 -24.988371,-23.73524 -3.58777,-3.58866 -6.10028,-7.35341 -8.07561,-9.32874 z"/><path style="fill:#000;fill-opacity:1" id="path9" d="m 67.823839,28.313381 c -11.13871,-11.139603 -29.19823,-11.139603 -40.33694,0 -11.13961,11.13872 -11.13961,29.19824 0,40.33963 11.13871,11.13693 29.19823,11.13693 40.33694,0 11.1414,-11.14229 11.1414,-29.20091 0,-40.33963 z m -5.31193,35.02591 c -8.20522,8.20521 -21.50786,8.20521 -29.71307,0 -8.20433,-8.20522 -8.20433,-21.50786 0,-29.71307 8.20521,-8.20432 21.50785,-8.20522 29.71307,0 8.20521,8.20611 8.20521,21.50785 0,29.71307 z"/></g><path id="path5431" d="m 127.29622,-50.42506 c 0,12.380536 -16.84683,22.416944 -37.628442,22.416944 -20.781614,0 -37.628441,-10.036408 -37.628441,-22.416944 0,-12.380537 16.846827,-22.416945 37.628441,-22.416945 20.781612,0 37.628442,10.036408 37.628442,22.416945 z" transform="translate(-34.161932,92.753248)" style="opacity:.45045046;fill:url(#radialGradient3007);fill-opacity:1;stroke:#000;stroke-width:0;stroke-linecap:round;stroke-linejoin:round;stroke-miterlimit:4;stroke-opacity:1;stroke-dasharray:none;stroke-dashoffset:0;filter:url(#filter5453)"/></g></svg>