<svg xmlns="http://www.w3.org/2000/svg" xmlns:svg="http://www.w3.org/2000/svg" xmlns:xlink="http://www.w3.org/1999/xlink" id="Layer_1" width="48" height="48" x="0" y="0" enable-background="new 0 0 44.445 100" version="1.1" viewBox="0 0 140 140" xml:space="preserve"><metadata id="metadata11"/><defs id="defs9"><radialGradient id="radialGradient5447" cx="89.668" cy="-50.425" r="37.628" fx="89.668" fy="-50.425" gradientTransform="matrix(0.01346767,-0.65863297,0.96712694,0.01977575,137.2276,9.6302931)" gradientUnits="userSpaceOnUse" xlink:href="#linearGradient5441"/><linearGradient id="linearGradient5441"><stop style="stop-color:#eeeeec;stop-opacity:.50335568" id="stop5443" offset="0"/><stop style="stop-color:#eeeeec;stop-opacity:0" id="stop5445" offset="1"/></linearGradient><radialGradient id="radialGradient3032" cx="89.668" cy="-50.425" r="37.628" fx="89.668" fy="-50.425" gradientTransform="matrix(0.01346767,-0.65863297,0.96712694,0.01977575,137.2276,9.6302931)" gradientUnits="userSpaceOnUse" xlink:href="#linearGradient5441"/></defs><g id="g3081" transform="matrix(0.92055085,0,0,0.92055085,11.084746,11.084746)"><path style="fill:#0057ae" id="path3" d="M 80.69568,37.30048 60.47552,30.91584 C 59.69984,30.6688 58.66688,29.2608 58.66688,28.44544 v -8.8896 H 67.5552 L 51.5552,0 l -16,19.55456 h 8.8896 v 8.8896 c 0,7.02464 5.05216,13.91872 11.7504,16.032 l 20.21888,6.38592 c 0.77696,0.24704 1.80736,1.65376 1.80736,2.4704 v 21.33376 c 0,0.81792 -1.0304,2.22336 -1.8112,2.4704 l -20.2112,6.3872 C 49.49696,85.63584 44.4448,92.52992 44.4448,99.55456 V 128 H 58.6656 V 99.55456 c 0,-0.81536 1.03296,-2.22336 1.81376,-2.4704 l 20.2112,-6.38464 C 87.39008,88.58496 92.4448,81.69344 92.4448,74.66624 V 53.33376 c 0,-7.0272 -5.05344,-13.91872 -11.74912,-16.03328 z"/><path id="path5" d="M 58.66688,77.14944 V 50.85056 l -4.0768,-1.2864 C 50.60032,48.30464 47.10336,45.84448 44.4448,42.67904 V 85.3248 c 2.65856,-3.168 6.1568,-5.62816 10.14656,-6.88896 l 4.07552,-1.2864 z"/></g></svg>