<svg xmlns="http://www.w3.org/2000/svg" xmlns:svg="http://www.w3.org/2000/svg" id="Layer_1" width="48" height="48" x="0" y="0" enable-background="new 0 0 100 85.416" version="1.0" viewBox="0 0 140 140" xml:space="preserve"><metadata id="metadata25"/><g id="g3052" transform="matrix(1.1031208,0,0,1.1031208,35.528027,14.844512)"><path id="path3042" d="m 31.238,12.5 c 5.017,0 9.729,1.953 13.269,5.499 C 48.047,21.533 50,26.245 50,31.25 50,36.255 48.047,40.967 44.592,44.415 44.068,44.934 37.598,51.367 31.238,61.42 24.926,51.386 18.481,44.977 17.993,44.501 14.453,40.967 12.5,36.255 12.5,31.25 c 0,-5.005 1.953,-9.717 5.493,-13.257 3.54,-3.54 8.149,-5.493 13.245,-5.493 m 0,-12.5 C 23.254,0 15.259,3.052 9.155,9.155 c -12.207,12.201 -12.207,31.988 0,44.189 0,0 22.083,21.655 22.083,46.655 0,-25 22.106,-46.655 22.106,-46.655 12.207,-12.201 12.207,-31.988 0,-44.189 C 47.241,3.052 39.246,0 31.238,0 l 0,0 z" style="fill:#010101"/><path id="path3044" d="m 37.5,31.25 c 0,3.455 -2.795,6.25 -6.262,6.25 C 27.691,37.5 25,34.705 25,31.25 25,27.795 27.691,25 31.238,25 c 3.467,0 6.262,2.795 6.262,6.25 z" style="fill:#010101"/></g></svg>