<svg xmlns="http://www.w3.org/2000/svg" xmlns:svg="http://www.w3.org/2000/svg" id="Layer_1" width="48" height="48" x="0" y="0" enable-background="new 0 0 100 100" version="1.1" viewBox="0 0 48 48" xml:space="preserve"><metadata id="metadata43"/><g id="g3123" transform="matrix(0.35431138,0,0,0.35431138,-0.54546454,32.61068)"><path style="fill:#0057ae" id="path3" d="M 110.69985,36.81627 H 36.713476 c -6.902983,0 -12.518784,-5.61579 -12.518784,-12.51767 0,-5.8566 4.042354,-10.78666 9.482839,-12.14595 2.427865,-6.06853 8.042563,-10.414932 14.590456,-11.194996 0.690186,-14.090004 12.370088,-25.341599 26.628757,-25.341599 10.449329,0 19.775724,6.142881 24.104344,15.264 3.554132,-1.941844 7.558752,-2.976012 11.698762,-2.976012 13.48528,0 24.45725,10.970853 24.45725,24.456107 0,13.48526 -10.97086,24.45612 -24.45725,24.45612 l 0,0 z M 36.632461,20.4138 c -2.104945,0.0433 -3.804899,1.76985 -3.804899,3.8848 0,2.14267 1.742119,3.8848 3.884793,3.8848 h 73.987495 c 8.72499,0 15.82325,-7.09827 15.82325,-15.82325 0,-8.724977 -7.09716,-15.822132 -15.82325,-15.822132 -4.08674,0 -7.96709,1.557919 -10.926462,4.385237 l -5.65463,5.40498 -1.557911,-7.665278 C 90.864233,-9.68919 83.4353,-15.751057 74.896744,-15.751057 c -9.940012,0 -18.02806,8.086934 -18.02806,18.02695 0,0.807804 0.05991,1.645558 0.17643,2.492216 L 57.855139,10.63468 52.022956,9.6105 C 51.470363,9.514 50.921098,9.4641 50.38737,9.4641 c -4.440716,0 -8.298879,3.15355 -9.17326,7.49773 l -0.721251,3.58076 -3.650667,-0.11763 c -0.06876,-0.003 -0.139875,-0.008 -0.209731,-0.0116 l 0,0 z"/><g style="fill:#e3ad00" id="g3056" transform="matrix(0.82322331,0,0,0.82322331,4.0832624,-108.79605)"><g style="fill:#e3ad00" id="g3" transform="translate(0,28)"><circle id="circle5" cx="50" cy="50" r="23.896" style="fill:#e3ad00" d="M 73.896,50 C 73.896,63.197396 63.197396,73.896 50,73.896 36.802604,73.896 26.104,63.197396 26.104,50 26.104,36.802604 36.802604,26.104 50,26.104 63.197396,26.104 73.896,36.802604 73.896,50 z"/></g><g style="fill:#e3ad00" id="g7" transform="translate(0,28)"><path id="path9" d="m 50,100 c -1.827,0 -3.308,-1.481 -3.308,-3.308 V 79.619 c 0,-1.827 1.48,-3.308 3.308,-3.308 1.828,0 3.308,1.48 3.308,3.308 V 96.692 C 53.308,98.519 51.827,100 50,100 z" style="fill:#e3ad00"/></g><g style="fill:#e3ad00" id="g11" transform="translate(0,28)"><path id="path13" d="m 50,23.688 c -1.827,0 -3.308,-1.481 -3.308,-3.308 V 3.308 C 46.692,1.481 48.173,0 50,0 c 1.827,0 3.308,1.481 3.308,3.308 v 17.073 c 0,1.827 -1.481,3.307 -3.308,3.307 z" style="fill:#e3ad00"/></g><g style="fill:#e3ad00" id="g15" transform="translate(0,28)"><path id="path17" d="M 20.381,53.308 H 3.308 C 1.481,53.308 0,51.827 0,50 0,48.173 1.481,46.692 3.308,46.692 h 17.073 c 1.827,0 3.308,1.48 3.308,3.308 -0.001,1.827 -1.481,3.308 -3.308,3.308 z" style="fill:#e3ad00"/></g><g style="fill:#e3ad00" id="g19" transform="translate(0,28)"><path id="path21" d="M 96.692,53.308 H 79.619 c -1.827,0 -3.308,-1.481 -3.308,-3.308 0,-1.827 1.48,-3.308 3.308,-3.308 h 17.073 c 1.826,0 3.308,1.48 3.308,3.308 0,1.827 -1.481,3.308 -3.308,3.308 z" style="fill:#e3ad00"/></g><g style="fill:#e3ad00" id="g23" transform="translate(0,28)"><path id="path25" d="m 13.254,90.054 c -0.847,0 -1.693,-0.323 -2.339,-0.969 -1.292,-1.292 -1.292,-3.386 0,-4.678 L 24.352,70.97 c 1.292,-1.292 3.386,-1.292 4.678,0 1.292,1.292 1.292,3.386 0,4.678 L 15.593,89.085 c -0.646,0.646 -1.492,0.969 -2.339,0.969 z" style="fill:#e3ad00"/></g><g style="fill:#e3ad00" id="g27" transform="translate(0,28)"><path id="path29" d="m 73.311,29.998 c -0.847,0 -1.693,-0.323 -2.34,-0.969 -1.291,-1.292 -1.291,-3.386 0,-4.678 L 84.408,10.914 c 1.292,-1.292 3.386,-1.292 4.679,0 1.291,1.292 1.291,3.386 0,4.678 L 75.649,29.029 c -0.646,0.646 -1.492,0.969 -2.338,0.969 z" style="fill:#e3ad00"/></g><g style="fill:#e3ad00" id="g31" transform="translate(0,28)"><path id="path33" d="m 26.69,29.999 c -0.847,0 -1.692,-0.323 -2.339,-0.969 L 10.915,15.593 c -1.292,-1.292 -1.292,-3.386 0,-4.678 1.293,-1.292 3.387,-1.292 4.678,0 L 29.03,24.352 c 1.292,1.292 1.292,3.386 0,4.678 -0.646,0.646 -1.493,0.969 -2.34,0.969 z" style="fill:#e3ad00"/></g><g style="fill:#e3ad00" id="g35" transform="translate(0,28)"><path id="path37" d="m 86.746,90.054 c -0.847,0 -1.692,-0.323 -2.339,-0.969 L 70.971,75.648 c -1.292,-1.292 -1.292,-3.386 0,-4.678 1.292,-1.292 3.386,-1.292 4.678,0 l 13.438,13.437 c 1.291,1.292 1.291,3.386 0,4.678 -0.648,0.646 -1.494,0.969 -2.341,0.969 z" style="fill:#e3ad00"/></g></g></g></svg>