<svg xmlns="http://www.w3.org/2000/svg" xmlns:svg="http://www.w3.org/2000/svg" id="Layer_1" width="48" height="48" x="0" y="0" enable-background="new 0 0 98.635 100" version="1.0" viewBox="0 0 48 48" xml:space="preserve"><metadata id="metadata13"/><g id="g8578" transform="matrix(0.3833674,0,0,0.3833674,-3.1211307,-0.32876223)"><g style="fill:#000;fill-opacity:1" id="g2990" transform="matrix(1.2636366,0,0,1.2636366,0.85401074,-10.652855)"><path style="fill:#000;fill-opacity:1" id="path5-6" d="m 55.593,44.252 c 7.439,0 13.475,-6.041 13.475,-13.477 0,-7.446 -6.035,-13.473 -13.475,-13.473 -7.439,0 -13.473,6.026 -13.473,13.473 0,7.437 6.034,13.477 13.473,13.477 z"/><path style="fill:#000;fill-opacity:1" id="path7-49" d="M 34.488,100 V 88.042 L 22.497,91.38 c -0.88,0.35 -1.836,0.545 -2.835,0.545 -4.24,0 -7.678,-3.446 -7.678,-7.682 0,-1.594 0.484,-3.072 1.311,-4.296 L 32.529,53.573 c 2.088,-2.86 5.004,-6.047 11.154,-6.047 h 23.254 c 6.146,0 9.065,3.187 11.15,6.047 L 97.32,79.947 c 0.827,1.224 1.314,2.702 1.314,4.296 0,4.235 -3.441,7.682 -7.678,7.682 -0.998,0 -1.958,-0.195 -2.835,-0.545 L 76.127,88.042 V 100 H 34.488 z m 20.822,-8.353 0,0 15.537,-5.142 -0.35,-0.097 C 59.777,83.253 63.95,69.089 74.67,72.251 l 1.465,0.492 V 56.75 L 55.31,63.553 34.485,56.75 v 15.994 l 1.458,-0.492 c 10.727,-3.162 14.9,11.002 4.173,14.157 l -0.343,0.097 15.537,5.141 0,0 z"/></g></g></svg>