<svg xmlns="http://www.w3.org/2000/svg" xmlns:svg="http://www.w3.org/2000/svg" id="svg2876" width="48" height="48" xml:space="preserve" style="fill-rule:evenodd" version="1.1" viewBox="0 0 24.84 24.84"><metadata id="metadata2890"/><defs id="defs2878"><style id="style2880" type="text/css"/><style id="style3672" type="text/css"/><style id="style3731" type="text/css"/><style id="style3757" type="text/css"/><style id="style3783" type="text/css"/><style id="style3809" type="text/css"/><style id="style3835" type="text/css"/></defs><g id="g3003" transform="matrix(0.52524272,0,0,0.52524272,-1.1705787,-8.8183726)"><path id="path2865" d="m 32.070997,23.629221 8.801758,-4.187002 1.896461,5.210293 -9.434047,2.450304 -1.26417,-3.473607 z" style="fill:#000"/><path id="path2863" d="m 25.756306,31.489826 c 1.339535,0 2.42587,-1.086331 2.42587,-2.425663 0,-0.109866 -0.0076,-0.217883 -0.02177,-0.323845 l 4.227467,-1.538733 -1.106252,-3.039251 -13.893957,5.057098 1.106251,3.039252 5.212533,-1.897284 c 0.430221,0.678085 1.187573,1.128429 2.049862,1.128429 z" style="fill:#000"/><path id="path2861" d="m 19.018783,47.570416 2.605144,0.948129 3.000467,-8.243386 0,7.794088 2.772305,0 0,-7.794088 3.00026,8.243386 2.605144,-0.948129 -5.689181,-15.630438 -1.302366,0.47396 -1.302571,-0.47396 -5.689181,15.630438 z" style="fill:#000"/><path id="path2859" d="m 19.136863,48.596783 1.736898,0.632292 -4.741043,13.025511 -1.736694,-0.632291 4.740836,-13.025512 z" style="fill:#000"/><path id="path2857" d="M 31.147306,49.229075 32.884,48.596783 37.625043,61.622295 35.888145,62.254586 31.147309,49.229075 z" style="fill:#000"/><path id="path2855" d="m 25.086427,48.938907 1.848202,0 0,13.456773 -1.848202,0 0,-13.456773 z" style="fill:#000"/><path id="path2853" d="m 41.503997,18.474774 1.026368,0.118285 2.054583,5.644413 -0.710327,0.750163 -2.370627,-6.512858 z" style="fill:#000"/><path id="path3841" d="M 8.5866305,36.110326 C 7.2442187,35.123798 6.9281777,34.255553 7.3224605,32.636925 l 0.592245,0.276204 8.6836645,-3.160617 c 0.302693,0.868449 0.625719,1.743677 0.948129,2.605144 L 8.8628345,35.518095 8.5866308,36.11034 z" style="fill:#000"/></g></svg>