<svg xmlns="http://www.w3.org/2000/svg" xmlns:svg="http://www.w3.org/2000/svg" id="Layer_1" width="48" height="48" x="0" y="0" enable-background="new 0 0 98.635 100" version="1.0" viewBox="0 0 48 48" xml:space="preserve"><metadata id="metadata13"/><g id="g5" transform="matrix(0.40335226,0,0,0.40335226,3.8323865,3.8323865)" style="fill:#0057ae"><path style="fill:#0057ae" id="path7" d="M 50,100 C 77.614,100 99.999,77.614 99.999,50 99.999,22.386 77.614,0 50,0 22.386,0 0.001,22.386 0.001,50 0.001,77.614 22.386,100 50,100 z M 49.679,15.666 c 4.596,0 7.721,3.493 7.721,7.998 0,4.781 -3.401,8.089 -7.721,8.089 -4.229,0 -7.631,-3.309 -7.631,-8.089 0,-4.688 3.402,-7.998 7.631,-7.998 z M 37.544,80.475 c 5.424,0 5.884,-0.827 5.884,-7.629 V 51.792 c 0,-6.802 -0.367,-7.262 -5.884,-7.262 v -3.676 c 5.608,-0.369 11.583,-1.84 17.927,-4.505 l 1.563,0.827 v 35.76 c 0,6.711 0.551,7.538 5.423,7.538 v 3.859 H 37.544 v -3.858 z"/></g></svg>