<svg xmlns="http://www.w3.org/2000/svg" xmlns:svg="http://www.w3.org/2000/svg" id="Layer_1" width="48" height="48" x="0" y="0" enable-background="new 0 0 98.635 100" version="1.0" viewBox="0 0 48 48" xml:space="preserve"><metadata id="metadata13"/><path id="path3" d="m 40.994993,9.1523659 -23.999999,0 c -0.05607,-2.152366 -0.755572,-3.152366 -2,-3.152366 -1.244428,0 -1.962617,1 -2,3.152366 l -6.0000003,0 c -1.0373832,0 -1.0105968,4.0000001 0,4.0000001 l 6.0000003,0 c 0,3 0.79815,3 2,3 1.20185,0 2,0 2,-3 l 23.999999,0 c 1.037383,0 1.037383,-4.0000001 0,-4.0000001 z"/><path id="path3-7" d="m 40.994993,22 -3.999998,0 c 0,-3 -0.79815,-3 -2,-3 -1.20185,0 -2,0 -2,3 L 6.9949942,22 c -1.0373831,0 -1.0105966,4 0,4 l 26.0000008,0 c 0,3 0.79815,3 2,3 1.20185,0 2,0 2,-3 l 3.999998,0 c 1.037383,0 1.037383,-4 0,-4 z"/><path id="path3-9" d="m 40.994992,34.847633 -15.999998,0 c 0,-3 -0.79815,-3 -2,-3 -1.20185,0 -2,0 -2,3 l -13.9999993,0 c -1.0373832,0 -1.0105967,4 0,4 l 13.9999993,0 c 0,3 0.79815,3 2,3 1.20185,0 2,0 2,-3 l 15.999998,0 c 1.037383,0 1.037383,-4 0,-4 z"/></svg>