<svg xmlns="http://www.w3.org/2000/svg" xmlns:svg="http://www.w3.org/2000/svg" id="svg2" width="17.243" height="32" version="1.1"><metadata id="metadata14"/><g id="g2991" transform="matrix(0.04558405,0,0,0.04558405,-0.4558405,-2.2336184)"><circle id="circle4" style="fill:#000;stroke:none" cx="188" cy="105" r="56" d="m 244,105 c 0,30.92795 -25.07205,56 -56,56 -30.92795,0 -56,-25.07205 -56,-56 0,-30.927946 25.07205,-56 56,-56 30.92795,0 56,25.072054 56,56 z"/><path id="path6" d="M 22,427 C 173.66667,190.33333 159.33333,183.66667 216,182 c 33,1 34,10 90,54 69,50.66667 64,51.33333 63,107 -0.33333,67 4.33333,62 -49,87 l 0,-113 -47,-42 0,159 -112,-1 -1,-126 C 68,449 74,441 22,427 z" style="fill:#000;stroke:none"/><path id="path8" d="m 163,450 109,0 c 0,25 8,23 66,132 61,112.33333 62,104.66667 27,169 L 214,480 C 71,756.66667 89,748.33333 10,743 L 89,595 c 67.66667,-122.33333 71.33333,-122.66667 74,-145 z" style="fill:#000;stroke:none"/></g></svg>