<svg xmlns="http://www.w3.org/2000/svg" xmlns:svg="http://www.w3.org/2000/svg" xmlns:xlink="http://www.w3.org/1999/xlink" id="svg2" width="112.027" height="112.027" version="1.0"><metadata id="metadata2466"/><defs id="defs4"><linearGradient id="linearGradient3162"><stop id="stop3186" style="stop-color:#fff;stop-opacity:1" offset="0"/><stop id="stop3442" style="stop-color:#fff;stop-opacity:1" offset=".457"/><stop id="stop3440" style="stop-color:#efefef;stop-opacity:1" offset=".65"/><stop id="stop3174" style="stop-color:gray;stop-opacity:1" offset="1"/></linearGradient><radialGradient id="radialGradient3475" cx="210.529" cy="405.194" r="42.608" fx="210.529" fy="405.194" gradientTransform="matrix(1.4550661,3.5539503e-7,-3.5810583e-7,1.4661647,-95.804658,-188.69577)" gradientUnits="userSpaceOnUse" xlink:href="#linearGradient3162"/></defs><g id="g3880" transform="translate(-21.238644,-2.3074807)"><path id="path2480" d="M 409.11179,406.87469 A 81.822357,81.822357 0 1 1 245.46707,406.87469 A 81.822357,81.822357 0 1 1 409.11179,406.87469 z" transform="matrix(0.6122911,0,0,0.6122911,-123.14428,-190.80478)" style="fill:#fff;fill-opacity:1;fill-rule:evenodd;stroke:#2c72c7;stroke-width:13.0656805;stroke-linecap:round;stroke-linejoin:round;marker:none;marker-start:none;marker-mid:none;marker-end:none;stroke-miterlimit:4;stroke-dasharray:none;stroke-dashoffset:0;stroke-opacity:1;visibility:visible;display:inline;overflow:visible;enable-background:accumulate"/><path id="path3762" d="M 409.11179,406.87469 A 81.822357,81.822357 0 1 1 245.46707,406.87469 A 81.822357,81.822357 0 1 1 409.11179,406.87469 z" transform="matrix(0.3173492,0,0,0.6133298,-26.612949,-191.21136)" style="fill:none;fill-opacity:1;fill-rule:evenodd;stroke:#2c72c7;stroke-width:13.59989357;stroke-linecap:round;stroke-linejoin:round;marker:none;marker-start:none;marker-mid:none;marker-end:none;stroke-miterlimit:4;stroke-dasharray:none;stroke-dashoffset:0;stroke-opacity:1;visibility:visible;display:inline;overflow:visible;enable-background:accumulate"/><path id="path3766" d="M 77.195691,8.2515943 L 77.195691,108.43277" style="fill:none;fill-rule:evenodd;stroke:#2c72c7;stroke-width:6;stroke-linecap:round;stroke-linejoin:miter;stroke-miterlimit:4;stroke-dasharray:none;stroke-opacity:1"/><path id="path3768" d="M 127.28627,58.342179 L 27.105105,58.342179" style="fill:none;fill-rule:evenodd;stroke:#2c72c7;stroke-width:6;stroke-linecap:butt;stroke-linejoin:miter;stroke-miterlimit:4;stroke-dasharray:none;stroke-opacity:1"/><path id="path3775" d="M 40.508454,92.219119 C 49.715058,86.159925 62.758711,82.384467 77.247096,82.384467 C 91.735482,82.384467 104.8074,86.159925 114.014,92.219119" style="fill:none;fill-opacity:1;fill-rule:evenodd;stroke:#2c72c7;stroke-width:6;stroke-linecap:round;stroke-linejoin:round;marker:none;marker-start:none;marker-mid:none;marker-end:none;stroke-miterlimit:4;stroke-dasharray:none;stroke-dashoffset:0;stroke-opacity:1;visibility:visible;display:inline;overflow:visible;enable-background:accumulate"/><path id="path3777" d="M 40.508454,24.506975 C 49.715058,30.566169 62.758711,34.341627 77.247096,34.341627 C 91.735482,34.341627 104.8074,30.566169 114.014,24.506975" style="fill:none;fill-opacity:1;fill-rule:evenodd;stroke:#2c72c7;stroke-width:6;stroke-linecap:round;stroke-linejoin:round;marker:none;marker-start:none;marker-mid:none;marker-end:none;stroke-miterlimit:4;stroke-dasharray:none;stroke-dashoffset:0;stroke-opacity:1;visibility:visible;display:inline;overflow:visible;enable-background:accumulate"/><path id="path3813" d="M 409.11179,406.87469 A 81.822357,81.822357 0 1 1 245.46707,406.87469 A 81.822357,81.822357 0 1 1 409.11179,406.87469 z" transform="matrix(0.6589086,0,0,0.6589086,-138.40172,-209.7723)" style="fill:#fff;fill-opacity:0;fill-rule:evenodd;stroke:#fff;stroke-width:6.37417698;stroke-linecap:round;stroke-linejoin:round;marker:none;marker-start:none;marker-mid:none;marker-end:none;stroke-miterlimit:4;stroke-dasharray:none;stroke-dashoffset:0;stroke-opacity:1;visibility:visible;display:inline;overflow:visible;enable-background:accumulate"/></g></svg>