<svg xmlns="http://www.w3.org/2000/svg" xmlns:svg="http://www.w3.org/2000/svg" id="svg2985" width="250" height="250" version="1.1"><metadata id="metadata2991"/><path style="fill:#999;stroke:none" id="path3159" d="M 126.03125 18.40625 C 111.64119 18.745082 101.89474 27.186096 95.40625 35.875 L 95.5625 36.4375 C 37.927381 46.642991 6.3133343 83.926617 6.5 107.5 L 6.28125 148.625 C 6.28125 185.53266 58.177638 224.45761 124.625 224.4375 C 196.2728 224.4576 243.4375 182.81287 243.4375 150.625 L 243.4375 107.46875 C 243.4375 79.98916 210.18463 48.311251 158.71875 37.1875 C 153.40626 28.163148 142.5171 18.602895 127.4375 18.40625 C 126.96359 18.40005 126.49545 18.39532 126.03125 18.40625 z M 50.875 59.375 C 85.999257 74.783549 123.15486 89.857433 150.875 106.5 C 165.92032 126.4965 186.25617 152.29064 208.03125 186.71875 C 177.70041 173.82255 138.18952 158.0865 109.15625 140 C 84.403873 113.73595 67.429354 85.019107 50.875 59.375 z M 63.28125 68.8125 C 77.450662 89.191406 91.395318 110.15299 111.90625 132.34375 C 113.92039 121.75112 119.40808 114.60222 127.0625 110.84375 C 106.16801 95.372507 84.827307 81.677457 63.28125 68.8125 z M 136.375 108.0625 C 132.74461 108.1453 129.73228 109.09397 127.125 110.375 C 151.30248 132.53039 174.68531 154.68835 198.25 176.84375 L 146.09375 109.71875 C 142.40484 108.46001 139.19863 107.99813 136.375 108.0625 z"/></svg>