<svg xmlns="http://www.w3.org/2000/svg" xmlns:svg="http://www.w3.org/2000/svg" id="svg4076" width="64" height="64" version="1.1"><defs id="defs4078"><filter id="filter6117" width="1.5" height="1.5" x="-.25" y="-.25" color-interpolation-filters="sRGB"><feGaussianBlur id="feGaussianBlur6119" in="SourceAlpha" result="blur" stdDeviation="1,000000"/><feColorMatrix id="feColorMatrix6121" result="bluralpha" type="matrix" values="1 0 0 0 0 0 1 0 0 0 0 0 1 0 0 0 0 0 0,500000 0"/><feOffset id="feOffset6123" dx="1 500000" dy="1 500000" in="bluralpha" result="offsetBlur"/><feMerge id="feMerge6125" result="fbSourceGraphic"><feMergeNode id="feMergeNode6127" in="offsetBlur"/><feMergeNode id="feMergeNode6129" in="SourceGraphic"/></feMerge><feColorMatrix id="feColorMatrix5066" in="fbSourceGraphic" result="fbSourceGraphicAlpha" values="0 0 0 -1 0 0 0 0 -1 0 0 0 0 -1 0 0 0 0 1 0"/><feGaussianBlur id="feGaussianBlur5068" in="fbSourceGraphicAlpha" result="blur" stdDeviation=".5"/><feColorMatrix id="feColorMatrix5070" result="bluralpha" type="matrix" values="1 0 0 0 0 0 1 0 0 0 0 0 1 0 0 0 0 0 0.500000 0"/><feOffset id="feOffset5072" dx="1" dy="1" in="bluralpha" result="offsetBlur"/><feMerge id="feMerge5074"><feMergeNode id="feMergeNode5076" in="offsetBlur"/><feMergeNode id="feMergeNode5078" in="fbSourceGraphic"/></feMerge></filter></defs><metadata id="metadata4081"/><g id="layer1" transform="translate(0,-988.3622)"><path id="rect5009-3" style="font-size:medium;font-style:normal;font-variant:normal;font-weight:400;font-stretch:normal;text-indent:0;text-align:start;text-decoration:none;line-height:normal;letter-spacing:normal;word-spacing:normal;text-transform:none;direction:ltr;block-progression:tb;writing-mode:lr-tb;text-anchor:start;color:#000;fill:#eeeeec;fill-opacity:1;fill-rule:nonzero;stroke:none;stroke-width:5;marker:none;visibility:visible;display:inline;overflow:visible;filter:url(#filter6117);enable-background:accumulate;font-family:Bitstream Vera Sans;-inkscape-font-specification:Bitstream Vera Sans" d="m 18.90805,1029.9632 -3.413141,3.455 -1.712861,-1.5306 -4.2426402,4.2426 1.1269502,-10.8939 c 0,0 8.186259,-0.6539 10.871766,-1.1049 l -4.24264,4.2426 m 1.612576,1.5892 c 2.440262,2.0291 3.552532,4.2973 3.552532,5.7235 0,4.3018 0,8.6051 0,12.9063 l -4.96875,0 c 0,0 -0.01053,-6.3021 0,-10.8205 0.0071,-3.0467 -1.997477,-4.3532 -1.997477,-4.3532" transform="matrix(2,0,0,2,2.0000001e-7,-1052.3622)"/></g></svg>