<svg xmlns="http://www.w3.org/2000/svg" xmlns:svg="http://www.w3.org/2000/svg" id="svg4076" width="64" height="64" version="1.1"><defs id="defs4078"><filter id="filter6075" width="1.5" height="1.5" x="-.25" y="-.25" color-interpolation-filters="sRGB"><feGaussianBlur id="feGaussianBlur6077" in="SourceAlpha" result="blur" stdDeviation="1,000000"/><feColorMatrix id="feColorMatrix6079" result="bluralpha" type="matrix" values="1 0 0 0 0 0 1 0 0 0 0 0 1 0 0 0 0 0 0,500000 0"/><feOffset id="feOffset6081" dx="1 500000" dy="1 500000" in="bluralpha" result="offsetBlur"/><feMerge id="feMerge6083" result="fbSourceGraphic"><feMergeNode id="feMergeNode6085" in="offsetBlur"/><feMergeNode id="feMergeNode6087" in="SourceGraphic"/></feMerge><feColorMatrix id="feColorMatrix5080" in="fbSourceGraphic" result="fbSourceGraphicAlpha" values="0 0 0 -1 0 0 0 0 -1 0 0 0 0 -1 0 0 0 0 1 0"/><feGaussianBlur id="feGaussianBlur5082" in="fbSourceGraphicAlpha" result="blur" stdDeviation=".5"/><feColorMatrix id="feColorMatrix5084" result="bluralpha" type="matrix" values="1 0 0 0 0 0 1 0 0 0 0 0 1 0 0 0 0 0 0.500000 0"/><feOffset id="feOffset5086" dx="1" dy="1" in="bluralpha" result="offsetBlur"/><feMerge id="feMerge5088"><feMergeNode id="feMergeNode5090" in="offsetBlur"/><feMergeNode id="feMergeNode5092" in="fbSourceGraphic"/></feMerge></filter></defs><metadata id="metadata4081"/><g id="layer1" transform="translate(0,-988.3622)"><path id="rect5009-00-3" style="font-size:medium;font-style:normal;font-variant:normal;font-weight:400;font-stretch:normal;text-indent:0;text-align:start;text-decoration:none;line-height:normal;letter-spacing:normal;word-spacing:normal;text-transform:none;direction:ltr;block-progression:tb;writing-mode:lr-tb;text-anchor:start;color:#000;fill:#eeeeec;fill-opacity:1;fill-rule:nonzero;stroke:none;stroke-width:5;marker:none;visibility:visible;display:inline;overflow:visible;filter:url(#filter6075);enable-background:accumulate;font-family:Bitstream Vera Sans;-inkscape-font-specification:Bitstream Vera Sans" d="m 6.9511953,1030.0404 4.2426407,4.2426 1.613087,-1.613 3.513437,3.5134 -1.613087,1.6131 4.242641,4.2426 -10.8717667,-1.1048 c 0,0 -0.676076,-8.2084 -1.126952,-10.8939 z m 9.3641697,6.1502 -3.57812,-3.4375 c 2.619792,-3.3021 4.005208,-5.5417 7.3125,-5.625 l -0.640625,0 c 5.11472,-0.031 5.59375,1.4937 5.625,5.5625 0.03304,4.3016 0,8.6051 0,12.9062 l -4.96875,0 0,-13.5 -0.01563,0 -3.734375,4.0938 z" transform="matrix(2,0,0,2,2.5555556e-7,-1052.3622)"/></g></svg>