<svg xmlns="http://www.w3.org/2000/svg" xmlns:svg="http://www.w3.org/2000/svg" id="svg4076" width="64" height="64" version="1.1"><defs id="defs4078"><filter id="filter6047" width="1.5" height="1.5" x="-.25" y="-.25" color-interpolation-filters="sRGB"><feGaussianBlur id="feGaussianBlur6049" in="SourceAlpha" result="blur" stdDeviation="1,000000"/><feColorMatrix id="feColorMatrix6051" result="bluralpha" type="matrix" values="1 0 0 0 0 0 1 0 0 0 0 0 1 0 0 0 0 0 0,500000 0"/><feOffset id="feOffset6053" dx="1 500000" dy="1 500000" in="bluralpha" result="offsetBlur"/><feMerge id="feMerge6055" result="fbSourceGraphic"><feMergeNode id="feMergeNode6057" in="offsetBlur"/><feMergeNode id="feMergeNode6059" in="SourceGraphic"/></feMerge><feColorMatrix id="feColorMatrix5038" in="fbSourceGraphic" result="fbSourceGraphicAlpha" values="0 0 0 -1 0 0 0 0 -1 0 0 0 0 -1 0 0 0 0 1 0"/><feGaussianBlur id="feGaussianBlur5040" in="fbSourceGraphicAlpha" result="blur" stdDeviation=".5"/><feColorMatrix id="feColorMatrix5042" result="bluralpha" type="matrix" values="1 0 0 0 0 0 1 0 0 0 0 0 1 0 0 0 0 0 0.500000 0"/><feOffset id="feOffset5044" dx="1" dy="1" in="bluralpha" result="offsetBlur"/><feMerge id="feMerge5046"><feMergeNode id="feMergeNode5048" in="offsetBlur"/><feMergeNode id="feMergeNode5050" in="fbSourceGraphic"/></feMerge></filter></defs><metadata id="metadata4081"/><g id="layer1" transform="translate(0,-988.3622)"><path style="font-size:medium;font-style:normal;font-variant:normal;font-weight:400;font-stretch:normal;text-indent:0;text-align:start;text-decoration:none;line-height:normal;letter-spacing:normal;word-spacing:normal;text-transform:none;direction:ltr;block-progression:tb;writing-mode:lr-tb;text-anchor:start;color:#000;fill:#eeeeec;fill-opacity:1;fill-rule:nonzero;stroke:none;stroke-width:5;marker:none;visibility:visible;display:inline;overflow:visible;filter:url(#filter6047);enable-background:accumulate;font-family:Bitstream Vera Sans;-inkscape-font-specification:Bitstream Vera Sans" id="rect5009-6" d="m 21.919386,1028.5028 c 0,-3.0522 -2.49369,-3.625 -5.5625,-3.625 -4.30174,0 -1.960951,0 -6.262091,0 -3.694213,0.024 -4.106324,2.69 -4,5.4844 l 0,17.4844 5.105841,0 0,-18.0644 5.75,0.064 0,13.0471 -4,0 c 0,0 6.48437,4.9063 6.48437,4.9063 0,0 4.26662,-3.3261 6.48438,-4.9063 l -4,0 0,-14.3909 0,0 z" transform="matrix(2,0,0,2,4.5420315e-7,-1052.3622)"/></g></svg>