<svg xmlns="http://www.w3.org/2000/svg" xmlns:svg="http://www.w3.org/2000/svg" xmlns:xlink="http://www.w3.org/1999/xlink" id="svg2" width="64" height="64" version="1.1"><metadata id="metadata8"/><defs id="defs6"><linearGradient id="linearGradient3640"><stop style="stop-color:#fff9ff;stop-opacity:1" id="stop3642" offset="0"/><stop style="stop-color:#fff9ff;stop-opacity:0" id="stop3644" offset="1"/></linearGradient><filter id="filter3636"><feGaussianBlur id="feGaussianBlur3638" stdDeviation="2.675"/></filter><radialGradient id="radialGradient3646" cx="-180.988" cy="30.216" r="45.735" fx="-180.988" fy="30.216" gradientTransform="matrix(2.5107253,-0.04209027,0.02977832,1.4989061,272.52372,-23.079317)" gradientUnits="userSpaceOnUse" xlink:href="#linearGradient3640"/><radialGradient id="radialGradient3648" cx="-180.988" cy="30.216" r="45.735" fx="-180.988" fy="30.216" gradientTransform="matrix(2.5107253,-0.04209027,0.02977832,1.4989061,272.52372,-23.079317)" gradientUnits="userSpaceOnUse" xlink:href="#linearGradient3640"/><radialGradient id="radialGradient3652" cx="-180.988" cy="30.216" r="45.735" fx="-180.988" fy="30.216" gradientTransform="matrix(2.5107253,-0.04209027,0.02977832,1.4989061,272.52372,-23.079317)" gradientUnits="userSpaceOnUse" xlink:href="#linearGradient3640"/></defs><path style="fill:#6193cf;fill-opacity:1;stroke:#555;stroke-width:5.61211824;stroke-linecap:round;stroke-linejoin:miter;stroke-miterlimit:4;stroke-opacity:1;stroke-dasharray:none;stroke-dashoffset:0" id="path2818" d="m -147,24.5 a 43,39.5 0 1 1 -86,0 43,39.5 0 1 1 86,0 z" transform="matrix(0.68312078,0,0,0.74365047,161.79295,13.780563)"/><rect style="opacity:.93388433;fill:#00f;fill-opacity:1;stroke:none" id="rect3716" width="40" height="4" x="12" y="30"/><rect style="opacity:.93388433;fill:#00f;fill-opacity:1;stroke:none" id="rect3716-9" width="40" height="4" x="12" y="-34" transform="matrix(0,1,-1,0,0,0)"/><path style="opacity:.29910715;fill:url(#radialGradient3652);fill-opacity:1;stroke:none;filter:url(#filter3636)" id="path3650" d="m -190,-13.59375 c -23.01398,0 -41.59375,17.1155856 -41.59375,38.09375 0,20.978165 18.57977,38.09375 41.59375,38.09375 23.01398,0 41.59375,-17.115585 41.59375,-38.09375 0,-20.9781644 -18.57977,-38.09375 -41.59375,-38.09375 z" transform="matrix(0.68312078,0,0,0.74365047,161.79295,13.780563)"/></svg>