<svg xmlns="http://www.w3.org/2000/svg" xmlns:svg="http://www.w3.org/2000/svg" xmlns:xlink="http://www.w3.org/1999/xlink" id="svg2" width="49.395" height="62.6" version="1.1"><defs id="defs4"><linearGradient id="linearGradient3594"><stop id="stop3596" offset="0" style="stop-color:#fff;stop-opacity:1"/><stop id="stop3598" offset="1" style="stop-color:#fff;stop-opacity:0"/></linearGradient><linearGradient id="linearGradient3600" x1="16.671" x2="27.512" y1="9.248" y2="9.248" gradientUnits="userSpaceOnUse" xlink:href="#linearGradient3594"/><linearGradient id="linearGradient3600-6" x1="16.671" x2="27.512" y1="9.248" y2="9.248" gradientUnits="userSpaceOnUse" xlink:href="#linearGradient3594-4"/><linearGradient id="linearGradient3594-4"><stop id="stop3596-0" offset="0" style="stop-color:#fff;stop-opacity:1"/><stop id="stop3598-0" offset="1" style="stop-color:#fff;stop-opacity:0"/></linearGradient><linearGradient id="linearGradient3673" x1="16.671" x2="27.512" y1="9.248" y2="9.248" gradientUnits="userSpaceOnUse" xlink:href="#linearGradient3594-4"/><filter id="filter3719" color-interpolation-filters="sRGB"><feGaussianBlur id="feGaussianBlur3721" stdDeviation=".768"/></filter><linearGradient id="linearGradient3914" x1="16.671" x2="27.512" y1="9.248" y2="9.248" gradientUnits="userSpaceOnUse" xlink:href="#linearGradient3594"/></defs><metadata id="metadata7"/><g id="layer1" transform="translate(0.12725071,-990.82137)"><path id="path2816" d="m 27.362967,1002.8667 -27.49021771,47.6959 0.12153741,2.849 31.0802463,-48.8039 -3.711566,-1.741 z" style="font-size:medium;font-style:normal;font-variant:normal;font-weight:400;font-stretch:normal;text-indent:0;text-align:start;text-decoration:none;line-height:normal;letter-spacing:normal;word-spacing:normal;text-transform:none;direction:ltr;block-progression:tb;writing-mode:lr-tb;text-anchor:start;color:#000;fill:#646464;fill-opacity:1;stroke:none;stroke-width:1px;marker:none;visibility:visible;display:inline;overflow:visible;enable-background:accumulate;font-family:Bitstream Vera Sans;-inkscape-font-specification:Bitstream Vera Sans"/><path id="path2818" d="m 36.697248,13.798165 a 9.1009178,7.7798166 0 1 1 -18.201835,0 9.1009178,7.7798166 0 1 1 18.201835,0 z" transform="matrix(1.0987903,0,0,1.2853773,0.37442937,984.08552)" style="fill:#d45500;fill-opacity:1;stroke:none"/><path id="path3592" d="m 27.449542,9.2477064 a 5.3577981,4.9908257 0 1 1 -10.715597,0 5.3577981,4.9908257 0 1 1 10.715597,0 z" transform="matrix(0.38012891,0.65872489,-0.90308311,0.94903147,26.522546,975.64807)" style="fill:url(#linearGradient3914);fill-opacity:1;stroke:none"/><path id="path2816-6" d="m 42.223702,1030.0596 c -4.568093,-0.2516 -9.770518,1.5334 -11.437418,3.9067 -0.834391,1.188 -0.594029,2.2649 0.437836,3.0462 0,0 -28.9191793,14.6632 -28.9191793,14.6632 0,0 -0.3913199,0.9025 -0.3913199,0.9025 0,0 31.2493022,-14.6903 31.2493022,-14.6903 0.776506,0.2072 1.690783,0.3449 2.720842,0.3742 4.231126,0.1203 9.00465,-1.4795 10.820899,-3.6407 1.884918,-2.2429 -0.04175,-4.3174 -4.480962,-4.5618 0,0 0,0 0,0" style="font-size:medium;font-style:normal;font-variant:normal;font-weight:400;font-stretch:normal;text-indent:0;text-align:start;text-decoration:none;line-height:normal;letter-spacing:normal;word-spacing:normal;text-transform:none;direction:ltr;block-progression:tb;writing-mode:lr-tb;text-anchor:start;color:#000;fill:#3c3c3c;fill-opacity:1;stroke:none;stroke-width:1px;marker:none;visibility:visible;display:inline;overflow:visible;filter:url(#filter3719);enable-background:accumulate;font-family:Bitstream Vera Sans;-inkscape-font-specification:Bitstream Vera Sans"/></g></svg>