<svg xmlns="http://www.w3.org/2000/svg" xmlns:svg="http://www.w3.org/2000/svg" id="svg4173" width="33.474" height="32.042" version="1.1"><defs id="defs4175"><filter id="filter4932" width="1.081" height="1.288" x="-.041" y="-.144" color-interpolation-filters="sRGB"><feGaussianBlur id="feGaussianBlur4934" stdDeviation=".424"/></filter></defs><metadata id="metadata4178"/><g id="layer1" transform="translate(-13.008617,-1011.2391)"><path style="fill:red;fill-opacity:1;stroke:#000;stroke-width:.42595485;stroke-linecap:round;stroke-linejoin:miter;stroke-miterlimit:4;stroke-opacity:1;stroke-dashoffset:0" id="path4183" d="m 30.259786,1022.1617 c 0,2.9575 -1.306214,1.7101 -3.407945,5.9178 -5.414657,10.8403 -4.332261,14.7629 -5.232853,14.7716 -0.772307,0.012 -0.181804,-3.9313 -5.111151,-14.7716 -1.93863,-4.2633 -3.286243,-2.9603 -3.286243,-5.9178 0,-5.9147 3.814128,-10.7096 8.519097,-10.7096 4.704966,0 8.519095,4.7949 8.519095,10.7096 z"/><path style="fill:#787878;fill-opacity:1;stroke:none;filter:url(#filter4932)" id="path4183-1" d="m 42.544708,1041.0406 c -2.230329,0.5715 -2.009603,-0.014 -6.341193,0.2424 -11.159458,0.6633 -14.003388,1.4905 -14.023946,1.4712 -0.02042,-0.019 2.864488,-0.8079 8.322436,-4.2062 2.146512,-1.3364 0.421094,-1.4409 2.651422,-2.0125 4.460431,-1.143 10.1787,-1.0611 12.772032,0.1828 2.593328,1.2441 1.079679,3.1792 -3.380751,4.3223 z" transform="matrix(0.97187417,-0.23550074,0.23550074,0.97187417,-244.90869,34.060341)"/></g></svg>