<svg xmlns="http://www.w3.org/2000/svg" xmlns:svg="http://www.w3.org/2000/svg" id="svg2" width="57.402" height="57.402" version="1.1"><defs id="defs4"><filter id="filter3798" width="1.5" height="1.5" x="-.25" y="-.25" color-interpolation-filters="sRGB"><feGaussianBlur id="feGaussianBlur3800" in="SourceAlpha" result="blur" stdDeviation="1,000000"/><feColorMatrix id="feColorMatrix3802" result="bluralpha" type="matrix" values="1 0 0 0 0 0 1 0 0 0 0 0 1 0 0 0 0 0 0,500000 0"/><feOffset id="feOffset3804" dx="1 0" dy="1 0" in="bluralpha" result="offsetBlur"/><feMerge id="feMerge3806"><feMergeNode id="feMergeNode3808" in="offsetBlur"/><feMergeNode id="feMergeNode3810" in="SourceGraphic"/></feMerge></filter><filter id="filter3954" width="1" height="1" x="0" y="0" color-interpolation-filters="sRGB"><feConvolveMatrix id="feConvolveMatrix3956" divisor="1" in="SourceGraphic" kernelMatrix="0 -0.15 0 -0.15 1.6 -0.15 0 -0.15 0" order="3 3" targetX="1" targetY="1"/></filter><filter id="filter4004" width="1.5" height="1.5" x="-.25" y="-.25"><feGaussianBlur id="feGaussianBlur4006" in="SourceAlpha" result="blur" stdDeviation="1,000000"/><feColorMatrix id="feColorMatrix4008" result="bluralpha" type="matrix" values="1 0 0 0 0 0 1 0 0 0 0 0 1 0 0 0 0 0 0,500000 0"/><feOffset id="feOffset4010" dx="1 0" dy="1 0" in="bluralpha" result="offsetBlur"/><feMerge id="feMerge4012"><feMergeNode id="feMergeNode4014" in="offsetBlur"/><feMergeNode id="feMergeNode4016" in="SourceGraphic"/></feMerge></filter><filter id="filter4167" width="1.5" height="1.5" x="-.25" y="-.25"><feGaussianBlur id="feGaussianBlur4169" in="SourceAlpha" result="blur" stdDeviation="1,000000"/><feColorMatrix id="feColorMatrix4171" result="bluralpha" type="matrix" values="1 0 0 0 0 0 1 0 0 0 0 0 1 0 0 0 0 0 0,500000 0"/><feOffset id="feOffset4173" dx="1 0" dy="1 0" in="bluralpha" result="offsetBlur"/><feMerge id="feMerge4175"><feMergeNode id="feMergeNode4177" in="offsetBlur"/><feMergeNode id="feMergeNode4179" in="SourceGraphic"/></feMerge></filter></defs><metadata id="metadata7"/><g id="layer1" transform="translate(12.552987,-1006.6469)"><path style="fill:#000;fill-opacity:1;filter:url(#filter4167)" id="path4165" d="m 12.341188,1046.2153 16.264487,-13.3539 3.85623,0.5782 c 4.049435,0.6338 8.777818,-1.0589 9.765022,-3.6315 0.687626,-1.792 0.72823,-6.632 0.05563,-6.632 -0.273325,0 -2.009755,1.2157 -3.858734,2.7016 -2.865805,2.303 -3.704902,2.5712 -5.687483,1.8174 -2.669744,-1.015 -5.414324,-5.6655 -4.662032,-7.8994 0.280107,-0.8317 1.862756,-2.513 3.516998,-3.7362 1.654243,-1.2232 2.82315,-2.5242 2.597572,-2.8911 -0.87379,-1.4214 -6.971582,-0.5976 -9.876357,1.3343 -2.836105,1.8863 -2.987829,2.244 -2.633709,6.2089 0.282207,3.1598 0.0031,4.5447 -1.120858,5.5618 -3.394887,4.665 -30.997589,24.6372 -32.115902,26.4495 -0.696002,1.128 5.373777,7.2868 6.865283,6.2134 3.512486,-2.5277 9.8538253,-7.6279 17.033848,-12.721 z m -19.08809,7.7785 c -1.263599,-1.5151 -0.644919,-3.1114 0.685478,-3.0407 1.99549,0.1061 3.587111,2.403 2.80174,3.5193 -0.84368,1.1993 -2.114493,1.1528 -3.487218,-0.4786 z" transform="matrix(0.76484519,0,0,0.76484519,4.2715153,243.04143)"/></g></svg>