<svg xmlns="http://www.w3.org/2000/svg" xmlns:svg="http://www.w3.org/2000/svg" id="svg3024" width="21" height="21" version="1.1"><metadata id="metadata3029"/><g id="layer1" transform="translate(0,-1031.3622)"><path style="fill:none;stroke:#000;stroke-width:4.07986689;stroke-miterlimit:4;stroke-opacity:1;stroke-dasharray:none" id="path3032" d="m 49.642859,32.94643 a 17.053572,17.053572 0 1 1 -34.107144,0 17.053572,17.053572 0 1 1 34.107144,0 z" transform="matrix(0.49021207,0,0,0.49021207,-5.4756617,1025.7115)"/><path style="fill:#000;fill-opacity:1;stroke:#000;stroke-width:3.56779957;stroke-miterlimit:4;stroke-opacity:1;stroke-dasharray:none" id="path3802" d="m 27.678572,26.25 a 2.5,2.5 0 1 1 -5,0 2.5,2.5 0 1 1 5,0 z" transform="matrix(0.35014825,0,0,0.35014825,1.6837672,1032.6708)"/><path style="fill:#000" id="path3981" d="M 392.94933,364.44833 681.8736,868.3791 100.99461,866.62948 z" transform="matrix(-0.00558208,0,0,0.01726322,12.685016,1035.6438)"/></g></svg>